<?xml version="1.0" encoding="iso-8859-1"?>
<!-- Generator: Adobe Illustrator 19.0.0, SVG Export Plug-In . SVG Version: 6.00 Build 0)  -->
<svg version="1.1" id="Capa_1" xmlns="http://www.w3.org/2000/svg" xmlns:xlink="http://www.w3.org/1999/xlink" x="0px" y="0px"
	 viewBox="0 0 512.001 512.001" style="enable-background:new 0 0 512.001 512.001;" xml:space="preserve">
<g>
	<g>
		<path d="M111.229,370.202l-19.962-25.947c-0.148-0.192-0.303-0.371-0.465-0.545c-0.007-0.008-0.013-0.016-0.02-0.024
			c-0.195-0.207-0.4-0.398-0.613-0.579c-0.038-0.032-0.078-0.06-0.117-0.091c-0.176-0.143-0.355-0.279-0.542-0.404
			c-0.06-0.04-0.122-0.077-0.183-0.116c-0.171-0.108-0.344-0.21-0.522-0.302c-0.072-0.038-0.144-0.074-0.218-0.109
			c-0.176-0.085-0.353-0.162-0.535-0.232c-0.076-0.03-0.151-0.061-0.228-0.088c-0.203-0.072-0.409-0.133-0.617-0.187
			c-0.055-0.014-0.108-0.033-0.164-0.046c-0.261-0.062-0.527-0.109-0.793-0.142c-0.066-0.008-0.132-0.01-0.198-0.016
			c-0.206-0.02-0.412-0.034-0.62-0.037c-0.035,0-0.068-0.006-0.103-0.006H57.386c-3.76,0-6.936,2.789-7.422,6.517l-5.988,45.91
			c-0.277,2.127,0.371,4.271,1.781,5.888l33.934,38.924c0.019,0.022,0.041,0.041,0.061,0.062c0.129,0.144,0.264,0.281,0.404,0.415
			c0.048,0.046,0.094,0.096,0.143,0.141c0.169,0.154,0.347,0.299,0.531,0.438c0.024,0.018,0.046,0.039,0.07,0.057
			c0.413,0.303,0.862,0.568,1.344,0.785c0.103,0.047,0.209,0.083,0.313,0.124c0.124,0.05,0.245,0.104,0.373,0.148
			c0.009,0.003,0.019,0.004,0.028,0.007c0.342,0.115,0.693,0.198,1.048,0.261c0.091,0.017,0.182,0.031,0.273,0.044
			c0.331,0.047,0.665,0.079,1.001,0.082c0.018,0,0.037,0.004,0.055,0.004c0.022,0,0.044-0.005,0.066-0.005
			c0.322-0.003,0.644-0.031,0.965-0.076c0.109-0.015,0.216-0.037,0.324-0.057c0.244-0.045,0.485-0.102,0.725-0.172
			c0.104-0.03,0.207-0.058,0.309-0.093c0.283-0.096,0.564-0.209,0.838-0.34c0.041-0.02,0.085-0.034,0.126-0.055
			c0.01-0.005,0.02-0.008,0.029-0.013c0.08-0.041,0.148-0.097,0.227-0.14c0.267-0.148,0.532-0.301,0.779-0.482
			c0.126-0.091,0.236-0.196,0.354-0.293c0.191-0.157,0.381-0.313,0.557-0.489c0.116-0.117,0.218-0.243,0.325-0.367
			c0.155-0.177,0.307-0.353,0.446-0.546c0.102-0.143,0.19-0.292,0.281-0.442c0.116-0.189,0.232-0.376,0.331-0.577
			c0.088-0.176,0.159-0.358,0.234-0.541c0.055-0.135,0.125-0.258,0.172-0.398l19.961-58.885
			C113.188,374.799,112.754,372.184,111.229,370.202z M67.051,386.389l4.506,20.072l-12.299-14.107l4.702-36.049h11.259
			l-8.023,26.258C66.817,383.803,66.767,385.122,67.051,386.389z M86.8,406.012l-4.708-20.97l6.158-20.154l8.669,11.27L86.8,406.012
			z"/>
	</g>
</g>
<g>
	<g>
		<path d="M489.354,373.626l-11.976-25.947c-0.953-2.065-4.99-4.349-5.692-4.349h-34.041c-3.688,0-6.827,2.686-7.396,6.33
			l-4.99,31.938c-0.375,2.4,0.438,4.835,2.183,6.527l33.827,32.833c0.007,0.007,0.015,0.014,0.022,0.021l0.084,0.082
			c0.045,0.044,0.095,0.081,0.141,0.124c0.123,0.114,0.247,0.227,0.378,0.332c0.075,0.061,0.154,0.115,0.23,0.172
			c0.117,0.087,0.233,0.175,0.355,0.254c0.107,0.07,0.218,0.133,0.327,0.197c0.099,0.058,0.195,0.119,0.297,0.173
			c0.148,0.078,0.3,0.146,0.452,0.213c0.065,0.029,0.126,0.063,0.192,0.09c0.009,0.004,0.018,0.006,0.027,0.009
			c0.147,0.06,0.296,0.108,0.447,0.158c0.084,0.028,0.166,0.062,0.25,0.086c0.09,0.026,0.181,0.044,0.271,0.067
			c0.613,0.157,1.232,0.242,1.844,0.242c0.074,0,0.146-0.014,0.22-0.016c0.274-0.008,0.55-0.023,0.823-0.061
			c0.128-0.018,0.252-0.052,0.378-0.077c0.22-0.042,0.438-0.084,0.654-0.147c0.136-0.039,0.266-0.092,0.398-0.139
			c0.198-0.069,0.394-0.138,0.587-0.225c0.145-0.065,0.283-0.143,0.423-0.217c0.125-0.066,0.255-0.119,0.376-0.193
			c0.039-0.024,0.071-0.055,0.11-0.079c0.239-0.149,0.463-0.318,0.685-0.494c0.088-0.07,0.183-0.132,0.266-0.205
			c0.283-0.247,0.551-0.515,0.797-0.806c0.008-0.009,0.017-0.017,0.025-0.026c0.251-0.3,0.48-0.624,0.685-0.968
			c0.062-0.103,0.105-0.215,0.161-0.32c0.118-0.222,0.242-0.438,0.339-0.676l15.969-38.924
			C490.272,377.68,490.225,375.514,489.354,373.626z M450.418,386.836l1.102,3.795l-10.871-10.55l3.403-21.779h12.812l-6.494,24.533
			C450.022,384.147,450.039,385.53,450.418,386.836z M467.801,393.014l-2.426-8.358l4.586-17.324l4.435,9.609L467.801,393.014z"/>
	</g>
</g>
<g>
	<g>
		<path d="M504.202,208.593h-47.635l-54.232-101.826c-1.59-2.985-5.045-4.619-8.533-3.721c-1.758,0.452-3.258,1.602-4.304,3.086
			l-5.72,8.112L356.52,63.032c-0.996-1.871-2.679-3.336-4.727-3.884c-3.252-0.871-6.572,0.492-8.299,3.218L311.29,113.19
			l-7.205-14.096c-1.637-3.203-5.387-4.64-8.781-3.449c-0.156,0.055-0.311,0.108-0.468,0.161c-4.148,1.395-6.12,6.113-4.128,10.01
			l52.53,102.777h-78.226l12.319-65.995c0.443-2.37-0.284-4.811-1.954-6.552c-1.669-1.742-4.074-2.571-6.463-2.232l-18.276,2.611
			l10.717-88.04l8.098,15.844c1.929,3.774,6.684,5.006,10.247,2.711c0.096-0.062,0.192-0.123,0.288-0.183
			c3.22-1.99,4.486-6.031,2.764-9.402l-19.983-39.101c-0.992-1.94-2.709-3.472-4.817-4.026c-3.221-0.847-6.473,0.47-8.215,3.13
			l-67,102.312l-15.322-21.524c-0.8-1.125-1.845-2.08-3.103-2.649c-3.007-1.36-6.379-0.615-8.523,1.616l-20.12,20.924
			l-12.452-10.377c-1.008-0.84-2.192-1.476-3.48-1.726c-3.107-0.601-6.117,0.763-7.744,3.263l-64.663,99.395H7.799
			c-4.099,0-7.673,3.158-7.796,7.255c-0.127,4.24,3.272,7.716,7.482,7.716H51.37c0.005,0,0.009,0.001,0.014,0.001
			c0.005,0,0.011-0.001,0.016-0.001h0.361l15.372,56.364c0.026,0.094,0.062,0.183,0.091,0.276c0.042,0.135,0.083,0.27,0.133,0.401
			c0.037,0.098,0.08,0.192,0.121,0.287c0.061,0.144,0.122,0.286,0.192,0.425c0.041,0.082,0.088,0.161,0.132,0.242
			c0.079,0.144,0.159,0.286,0.247,0.423c0.048,0.076,0.101,0.148,0.152,0.222c0.092,0.134,0.186,0.266,0.286,0.392
			c0.058,0.074,0.12,0.145,0.181,0.217c0.101,0.118,0.203,0.233,0.309,0.343c0.071,0.074,0.145,0.145,0.219,0.216
			c0.105,0.1,0.212,0.197,0.322,0.29c0.084,0.071,0.17,0.141,0.257,0.208c0.11,0.085,0.223,0.167,0.336,0.245
			c0.093,0.064,0.186,0.127,0.281,0.187c0.121,0.076,0.245,0.146,0.369,0.214c0.064,0.035,0.124,0.076,0.189,0.109l4.626,2.364
			l42.388,65.882c0.808,1.256,1.973,2.242,3.345,2.829l29.573,12.674c0.095,0.436,0.225,0.869,0.402,1.295l32.936,78.846
			c0.627,1.5,1.725,2.756,3.128,3.576l52.897,30.94c0.803,0.47,1.66,0.759,2.526,0.906l5.47,9.846
			c0.489,0.879,1.096,1.699,1.854,2.36c1.526,1.332,3.239,1.884,4.908,1.884c2.045,0,4.018-0.839,5.441-2.345l66.922-70.86
			l58.643-28.345c0.011-0.005,0.022-0.013,0.033-0.018c0.062-0.03,0.121-0.069,0.182-0.101c0.261-0.137,0.512-0.288,0.753-0.453
			c0.044-0.03,0.091-0.05,0.135-0.081c0.062-0.045,0.118-0.096,0.178-0.142c0.088-0.067,0.174-0.135,0.258-0.206
			c0.129-0.108,0.252-0.219,0.371-0.332c0.069-0.066,0.138-0.131,0.205-0.2c0.131-0.135,0.253-0.274,0.372-0.417
			c0.048-0.058,0.099-0.114,0.145-0.173c0.136-0.174,0.261-0.352,0.38-0.535c0.024-0.037,0.051-0.072,0.074-0.109
			c0.284-0.454,0.517-0.935,0.697-1.433c0.026-0.073,0.047-0.149,0.071-0.223c0.057-0.175,0.11-0.35,0.154-0.529
			c0.009-0.036,0.023-0.07,0.031-0.106l17.331-75.103l47.616-34.284c1.902-1.369,3.053-3.55,3.109-5.893l1.275-52.577h45.137
			c4.211,0,7.609-3.476,7.482-7.716C511.874,211.752,508.3,208.593,504.202,208.593z M404.156,142.034l35.449,66.559h-35.643
			L404.156,142.034z M389.213,132.514l-0.224,76.079h-28.938l-10.289-20.132L389.213,132.514z M342.064,173.4l-22.86-44.728
			l30.05-47.427l24.858,46.705L342.064,173.4z M343.92,223.564c0.007,0,0,0,0.007,0h61.631l-2.091,25.085l-29.469,29.393
			l-17.773-15.285l-17.146-21.434L343.92,223.564z M342.144,269.121l-16.778,38.35c-21.609-3.884-32.982-5.896-39.053-6.937
			c-0.091-0.485-0.232-0.968-0.425-1.443l-10.566-25.975l53.145-21.09L342.144,269.121z M328.402,223.564l-3.786,13.884
			l-54.935,21.799l-7.746-19.042c-0.005-0.012-0.013-0.023-0.018-0.036c-0.108-0.26-0.228-0.519-0.368-0.771l-8.772-15.834H328.402z
			 M250.253,251.216l20.556,50.533l-40.233,11.605l-46.242-53.296L250.253,251.216z M177.673,245.846l2.637-22.282h55.353
			l7.479,13.501L177.673,245.846z M160.323,113.997l13.61,19.119l-23.231,35.474l-6.455-37.874L160.323,113.997z M246.038,50.335
			l-11.441,93.977c-0.281,2.311,0.529,4.623,2.193,6.252c1.664,1.63,3.992,2.39,6.297,2.063l17.614-2.516l-10.917,58.482H142.402
			L246.038,50.335z M65.19,208.593l54.759-84.17l9.37,7.808l9.334,54.76l-14.145,21.602H65.19z M67.279,223.564h97.956
			l-2.892,24.445l-82.697,20.892L67.279,223.564z M166.536,262.39l45.114,51.996h-49.574l-66.605-34.043L166.536,262.39z
			 M129.313,342.842l-27.215-42.297l55.609,28.422l6.991,29.041L129.313,342.842z M211.88,329.357l-30.135,35.493l-8.544-35.493
			H211.88z M197.069,440.434l-22.945-54.93l32.578,35.15c0.007,0.007,0.013,0.015,0.02,0.022l2.254,2.432l19.99,35.983
			L197.069,440.434z M250.907,467.759l-28.154-50.678l38.448-28.091L250.907,467.759z M263.561,368.724l-50.429,36.845
			l-24.175-26.084l43.342-51.047l38.256-11.035l-6.68,51.115C263.771,368.586,263.663,368.649,263.561,368.724z M317.427,413.543
			l-51.458,54.486l17.643-135.003l35.917,78.969C318.744,412.386,318.03,412.905,317.427,413.543z M333.007,405.469l-40.305-88.619
			c9.766,1.727,22.624,4.026,32.838,5.863l45.95,64.157L333.007,405.469z M379.187,371.904l-40.766-56.919l15.193-34.728
			l38.985,33.527L379.187,371.904z M401.761,301.917l-16.379-14.086l26.752-26.682l27.042,13.83L401.761,301.917z M443.511,260.382
			l-24.936-12.753l2.005-24.065h23.823L443.511,260.382z"/>
	</g>
</g>
<g>
</g>
<g>
</g>
<g>
</g>
<g>
</g>
<g>
</g>
<g>
</g>
<g>
</g>
<g>
</g>
<g>
</g>
<g>
</g>
<g>
</g>
<g>
</g>
<g>
</g>
<g>
</g>
<g>
</g>
</svg>
