<?xml version="1.0" encoding="iso-8859-1"?>
<!-- Generator: Adobe Illustrator 19.0.0, SVG Export Plug-In . SVG Version: 6.00 Build 0)  -->
<svg version="1.1" id="Capa_1" xmlns="http://www.w3.org/2000/svg" xmlns:xlink="http://www.w3.org/1999/xlink" x="0px" y="0px"
	 viewBox="0 0 512 512" style="enable-background:new 0 0 512 512;" xml:space="preserve">
<polygon style="fill:#7EC9E0;" points="457.088,384.831 467.917,343.927 483.101,376.829 466.508,417.276 "/>
<polygon style="fill:#56BED6;" points="432.122,383.008 437.218,350.393 467.917,343.927 458.124,384.819 466.508,417.276 "/>
<polygon style="fill:#7EC9E0;" points="73.839,384.805 86.008,348.397 105.853,374.752 84.671,433.73 "/>
<g>
	<polygon style="fill:#56BED6;" points="50.876,394.965 56.95,348.397 86.008,348.397 74.871,384.844 79.347,404.788 84.671,433.73 
			"/>
	<polygon style="fill:#56BED6;" points="190.73,446.053 176.699,378.083 179.978,380.154 215.487,418.465 248.967,480.784 	"/>
	<path style="fill:#56BED6;" d="M310.02,128.324l37.658-59.434c0.971-1.532,3.235-1.447,4.087,0.155l31.705,59.567l-42.499,60.271
		L310.02,128.324z"/>
</g>
<path style="fill:#C8E6FA;" d="M214.673,419.055l-37.974-40.972l-12.952-53.798l-89.817-45.907l-16.908-61.994l-3.504-4.416
	l63.343-97.364c0.69-1.06,2.149-1.28,3.121-0.47l16.214,13.513l23.282-24.213c0.916-0.953,2.474-0.838,3.241,0.239l20.26,28.459
	l73.074-111.588l54.627,106.881l0.185,1.002l0.703,0.733l29.54,57.797l54.679-77.546l56.787,106.625l-1.461,60.262l-49.952,35.965
	l-17.976,77.898l-60.017,29.007l-68.272,72.288L214.673,419.055z"/>
<g>
	<polygon style="fill:#7EC9E0;" points="178.286,379.794 227.772,321.511 280.052,306.43 271.32,373.247 268.134,375.348 
		212.106,416.284 	"/>
	<polygon style="fill:#7EC9E0;" points="279.314,304.368 329.123,416.291 323.155,419.183 254.897,491.457 	"/>
</g>
<path style="fill:#56BED6;" d="M279.197,306.423l14.939,2.641c9.772,1.728,22.639,4.029,32.86,5.867l3.191,0.574l53.36,74.503
	l-54.38,26.284L279.197,306.423z"/>
<polygon style="fill:#7EC9E0;" points="329.285,316.02 350.628,267.235 401.189,312.163 383.547,390.007 "/>
<path style="fill:#C8E6FA;" d="M323.953,315.405c-19.521-3.509-32.274-5.775-38.989-6.925l-5.467-0.937l-1.029-5.451l-13.575-33.351
	l66.121-26.238l20.38,25.474l-21.239,48.543L323.953,315.405z"/>
<polygon style="fill:#56BED6;" points="123.921,349.294 73.932,278.377 164.611,323.604 176.699,378.083 "/>
<polygon style="fill:#7EC9E0;" points="160.153,322.447 74.001,278.638 169.345,253.522 229.148,322.447 "/>
<polygon style="fill:#56BED6;" points="168.603,254.19 255.318,242.556 281.548,307.037 227.887,322.516 "/>
<polygon style="fill:#7EC9E0;" points="410.173,252.377 413.233,215.656 452.583,215.656 451.113,276.298 "/>
<polygon style="fill:#56BED6;" points="350.454,268.401 330.306,243.216 337.82,215.656 414.234,215.656 411.18,252.309 
	374.399,288.994 "/>
<polygon style="fill:#7EC9E0;" points="254.567,243.364 245.793,227.51 239.227,215.656 338.854,215.656 331.27,243.474 
	265.269,269.665 "/>
<polygon style="fill:#56BED6;" points="56.825,215.656 174.219,215.656 169.625,254.481 74.001,278.638 "/>
<g>
	<polygon style="fill:#7EC9E0;" points="355.164,216.654 340.458,187.878 395.787,109.411 396.951,216.654 	"/>
	<path style="fill:#7EC9E0;" d="M50.47,216.654l66.391-102.05c0.69-1.06,2.15-1.279,3.121-0.47l16.712,13.928l10.355,60.757
		l-18.228,27.836L50.47,216.654L50.47,216.654z"/>
	<path style="fill:#7EC9E0;" d="M127.629,216.654L256.053,20.543l-2.09,30.834l-10.907,89.588c-0.231,1.89,1.396,3.483,3.282,3.214
		l20.258-2.898c1.96-0.28,3.617,1.448,3.254,3.394l-13.436,71.979H127.629z"/>
	<path style="fill:#7EC9E0;" d="M504.515,223.64H7.485c-4.134,0-7.485-3.351-7.485-7.485s3.351-7.485,7.485-7.485h497.029
		c4.134,0,7.485,3.351,7.485,7.485S508.649,223.64,504.515,223.64z"/>
</g>
<g>
</g>
<g>
</g>
<g>
</g>
<g>
</g>
<g>
</g>
<g>
</g>
<g>
</g>
<g>
</g>
<g>
</g>
<g>
</g>
<g>
</g>
<g>
</g>
<g>
</g>
<g>
</g>
<g>
</g>
</svg>
