<?xml version="1.0" encoding="iso-8859-1"?>
<!-- Generator: Adobe Illustrator 19.0.0, SVG Export Plug-In . SVG Version: 6.00 Build 0)  -->
<svg version="1.1" id="Layer_1" xmlns="http://www.w3.org/2000/svg" xmlns:xlink="http://www.w3.org/1999/xlink" x="0px" y="0px"
	 viewBox="0 0 512 512" style="enable-background:new 0 0 512 512;" xml:space="preserve">
<path style="fill:#C8C6CD;" d="M404.36,34.99v134.42h-67.94V70.62c0-3.89-3.14-7.03-7.03-7.03H182.61c-3.89,0-7.03,3.14-7.03,7.03
	v98.79h-67.94V34.99c0-19.32,15.67-34.99,35-34.99h226.72C388.69,0,404.36,15.67,404.36,34.99z"/>
<polygon style="fill:#8B8892;" points="460.75,252 460.75,429.41 504.31,429.41 504.31,512 7.69,512 7.69,429.41 51.25,429.41 
	51.25,252 7.69,252 7.69,169.41 504.31,169.41 504.31,252 "/>
<polygon style="fill:#57555C;" points="460.75,252 460.75,429.41 504.31,429.41 504.31,512 256,512 256,169.41 504.31,169.41 
	504.31,252 "/>
<path style="fill:#AEADB3;" d="M404.36,34.99v134.42h-67.94V70.62c0-3.89-3.14-7.03-7.03-7.03H256V0h113.36
	C388.69,0,404.36,15.67,404.36,34.99z"/>
<path style="fill:#57555C;" d="M283.42,345.11l4.92,56.44h-64.68l4.92-56.44c-6.78-6.93-10.97-16.41-10.97-26.86
	c0-21.21,17.19-38.4,38.39-38.4s38.39,17.19,38.39,38.4C294.39,328.7,290.2,338.18,283.42,345.11z"/>
<path style="fill:#3C3A41;" d="M294.39,318.25c0,10.45-4.19,19.93-10.97,26.86l4.92,56.44H256v-121.7
	C277.2,279.85,294.39,297.04,294.39,318.25z"/>
<g>
</g>
<g>
</g>
<g>
</g>
<g>
</g>
<g>
</g>
<g>
</g>
<g>
</g>
<g>
</g>
<g>
</g>
<g>
</g>
<g>
</g>
<g>
</g>
<g>
</g>
<g>
</g>
<g>
</g>
</svg>
